<svg width="1200" height="360" viewBox="0 0 1200 360" fill="none" xmlns="http://www.w3.org/2000/svg">
  <defs>
    <linearGradient id="g1" x1="0" y1="0" x2="1" y2="1">
      <stop offset="0%" stop-color="#1E40AF"/>
      <stop offset="100%" stop-color="#0EA5A5"/>
    </linearGradient>
    <linearGradient id="g2" x1="0" y1="0" x2="1" y2="0">
      <stop offset="0%" stop-color="#1D4ED8"/>
      <stop offset="100%" stop-color="#0F766E"/>
    </linearGradient>
  </defs>

  <rect x="120" y="24" width="340" height="152" rx="22" stroke="url(#g1)" stroke-width="10"/>

  <circle cx="190" cy="100" r="34" fill="#1E40AF" opacity="0.95"/>
  <circle cx="190" cy="91" r="12" fill="white" opacity="0.95"/>
  <path d="M168 117C176 106 203 106 212 117V132H168V117Z" fill="white" opacity="0.95"/>

  <path d="M236 122L292 74H380" stroke="url(#g2)" stroke-width="8" stroke-linecap="round" stroke-linejoin="round"/>
  <circle cx="291" cy="74" r="7" fill="#0EA5A5"/>
  <circle cx="380" cy="74" r="7" fill="#0EA5A5"/>

  <path d="M252 178C304 172 329 124 362 124C388 124 409 146 453 66" stroke="url(#g1)" stroke-width="16" stroke-linecap="round" stroke-linejoin="round"/>
  <path d="M436 72L465 58L450 91" fill="#0EA5A5"/>

  <rect x="322" y="132" width="25" height="48" rx="4" fill="#0F766E"/>
  <rect x="355" y="112" width="25" height="68" rx="4" fill="#0EA5A5"/>
  <rect x="388" y="90" width="25" height="90" rx="4" fill="#0891B2"/>

  <text x="120" y="268" fill="#0B4A97" font-size="108" font-family="Segoe UI, Arial, sans-serif" font-weight="700">CarteVisite</text>
  <text x="120" y="322" fill="#6B7280" font-size="44" font-family="Segoe UI, Arial, sans-serif" letter-spacing="1">PUBLICATIONS &amp; VISIBILITE D ENTREPRISES</text>
</svg>
